<mxfile host="app.diagrams.net" agent="Mozilla/5.0 (X11; Ubuntu; Linux x86_64; rv:132.0) Gecko/20100101 Firefox/132.0" version="24.8.6">
  <diagram name="Solution first idea" id="TzZRVZOyGRQ843EEWhr6">
    <mxGraphModel dx="1900" dy="577" grid="1" gridSize="10" guides="1" tooltips="1" connect="1" arrows="1" fold="1" page="1" pageScale="1" pageWidth="850" pageHeight="1100" math="0" shadow="0">
      <root>
        <mxCell id="0" />
        <mxCell id="1" parent="0" />
        <mxCell id="4AQS_WKDl_blNjUJ66pf-17" value="" style="rounded=1;whiteSpace=wrap;html=1;fillColor=#dae8fc;strokeColor=#6c8ebf;gradientColor=none;" vertex="1" parent="1">
          <mxGeometry x="120" y="140" width="310" height="250" as="geometry" />
        </mxCell>
        <mxCell id="4AQS_WKDl_blNjUJ66pf-3" value="Web 1" style="rounded=1;whiteSpace=wrap;html=1;" vertex="1" parent="1">
          <mxGeometry x="600" y="120" width="80" height="80" as="geometry" />
        </mxCell>
        <mxCell id="4AQS_WKDl_blNjUJ66pf-4" value="Web 2" style="rounded=1;whiteSpace=wrap;html=1;" vertex="1" parent="1">
          <mxGeometry x="600" y="210" width="80" height="80" as="geometry" />
        </mxCell>
        <mxCell id="4AQS_WKDl_blNjUJ66pf-5" value="Web N" style="rounded=1;whiteSpace=wrap;html=1;" vertex="1" parent="1">
          <mxGeometry x="600" y="330" width="80" height="80" as="geometry" />
        </mxCell>
        <mxCell id="4AQS_WKDl_blNjUJ66pf-6" value="" style="shape=waypoint;sketch=0;size=6;pointerEvents=1;points=[];fillColor=none;resizable=0;rotatable=0;perimeter=centerPerimeter;snapToPoint=1;" vertex="1" parent="1">
          <mxGeometry x="630" y="290" width="20" height="20" as="geometry" />
        </mxCell>
        <mxCell id="4AQS_WKDl_blNjUJ66pf-7" value="" style="shape=waypoint;sketch=0;size=6;pointerEvents=1;points=[];fillColor=none;resizable=0;rotatable=0;perimeter=centerPerimeter;snapToPoint=1;" vertex="1" parent="1">
          <mxGeometry x="630" y="300" width="20" height="20" as="geometry" />
        </mxCell>
        <mxCell id="4AQS_WKDl_blNjUJ66pf-8" value="" style="shape=waypoint;sketch=0;size=6;pointerEvents=1;points=[];fillColor=none;resizable=0;rotatable=0;perimeter=centerPerimeter;snapToPoint=1;" vertex="1" parent="1">
          <mxGeometry x="630" y="310" width="20" height="20" as="geometry" />
        </mxCell>
        <mxCell id="4AQS_WKDl_blNjUJ66pf-11" value="" style="endArrow=classic;html=1;rounded=0;entryX=0;entryY=0.5;entryDx=0;entryDy=0;exitX=1;exitY=0.5;exitDx=0;exitDy=0;startArrow=classic;startFill=1;" edge="1" parent="1" source="4AQS_WKDl_blNjUJ66pf-14" target="4AQS_WKDl_blNjUJ66pf-3">
          <mxGeometry width="50" height="50" relative="1" as="geometry">
            <mxPoint x="450" y="212.5" as="sourcePoint" />
            <mxPoint x="450" y="260" as="targetPoint" />
          </mxGeometry>
        </mxCell>
        <mxCell id="4AQS_WKDl_blNjUJ66pf-32" value="ask to web application" style="edgeLabel;html=1;align=center;verticalAlign=middle;resizable=0;points=[];" vertex="1" connectable="0" parent="4AQS_WKDl_blNjUJ66pf-11">
          <mxGeometry x="-0.076" y="2" relative="1" as="geometry">
            <mxPoint as="offset" />
          </mxGeometry>
        </mxCell>
        <mxCell id="4AQS_WKDl_blNjUJ66pf-12" value="" style="endArrow=classic;html=1;rounded=0;entryX=0;entryY=0.5;entryDx=0;entryDy=0;exitX=1;exitY=0.5;exitDx=0;exitDy=0;startArrow=classic;startFill=1;" edge="1" parent="1" source="4AQS_WKDl_blNjUJ66pf-15" target="4AQS_WKDl_blNjUJ66pf-4">
          <mxGeometry width="50" height="50" relative="1" as="geometry">
            <mxPoint x="452.03999999999996" y="260" as="sourcePoint" />
            <mxPoint x="650" y="180" as="targetPoint" />
          </mxGeometry>
        </mxCell>
        <mxCell id="4AQS_WKDl_blNjUJ66pf-13" value="" style="endArrow=classic;html=1;rounded=0;entryX=0;entryY=0.5;entryDx=0;entryDy=0;exitX=1;exitY=0.5;exitDx=0;exitDy=0;startArrow=classic;startFill=1;" edge="1" parent="1" source="4AQS_WKDl_blNjUJ66pf-16" target="4AQS_WKDl_blNjUJ66pf-5">
          <mxGeometry width="50" height="50" relative="1" as="geometry">
            <mxPoint x="452" y="321" as="sourcePoint" />
            <mxPoint x="650" y="270" as="targetPoint" />
          </mxGeometry>
        </mxCell>
        <mxCell id="4AQS_WKDl_blNjUJ66pf-27" style="edgeStyle=orthogonalEdgeStyle;rounded=0;orthogonalLoop=1;jettySize=auto;html=1;" edge="1" parent="1" source="4AQS_WKDl_blNjUJ66pf-14" target="4AQS_WKDl_blNjUJ66pf-28">
          <mxGeometry relative="1" as="geometry">
            <mxPoint x="350" y="100" as="targetPoint" />
            <Array as="points">
              <mxPoint x="390" y="70" />
            </Array>
          </mxGeometry>
        </mxCell>
        <mxCell id="4AQS_WKDl_blNjUJ66pf-31" value="save results" style="edgeLabel;html=1;align=center;verticalAlign=middle;resizable=0;points=[];" vertex="1" connectable="0" parent="4AQS_WKDl_blNjUJ66pf-27">
          <mxGeometry x="0.2923" y="-1" relative="1" as="geometry">
            <mxPoint as="offset" />
          </mxGeometry>
        </mxCell>
        <mxCell id="4AQS_WKDl_blNjUJ66pf-14" value="P1" style="whiteSpace=wrap;html=1;" vertex="1" parent="1">
          <mxGeometry x="370" y="190" width="40" height="40" as="geometry" />
        </mxCell>
        <mxCell id="4AQS_WKDl_blNjUJ66pf-15" value="P2" style="whiteSpace=wrap;html=1;" vertex="1" parent="1">
          <mxGeometry x="370" y="240" width="40" height="40" as="geometry" />
        </mxCell>
        <mxCell id="4AQS_WKDl_blNjUJ66pf-16" value="PN" style="whiteSpace=wrap;html=1;" vertex="1" parent="1">
          <mxGeometry x="370" y="320" width="40" height="40" as="geometry" />
        </mxCell>
        <mxCell id="4AQS_WKDl_blNjUJ66pf-20" value="" style="shape=waypoint;sketch=0;size=6;pointerEvents=1;points=[];fillColor=none;resizable=0;rotatable=0;perimeter=centerPerimeter;snapToPoint=1;strokeWidth=0;" vertex="1" parent="1">
          <mxGeometry x="380" y="300" width="20" height="20" as="geometry" />
        </mxCell>
        <mxCell id="4AQS_WKDl_blNjUJ66pf-21" value="" style="shape=waypoint;sketch=0;size=6;pointerEvents=1;points=[];fillColor=none;resizable=0;rotatable=0;perimeter=centerPerimeter;snapToPoint=1;strokeWidth=0;" vertex="1" parent="1">
          <mxGeometry x="380" y="290" width="20" height="20" as="geometry" />
        </mxCell>
        <mxCell id="4AQS_WKDl_blNjUJ66pf-22" value="" style="shape=waypoint;sketch=0;size=6;pointerEvents=1;points=[];fillColor=none;resizable=0;rotatable=0;perimeter=centerPerimeter;snapToPoint=1;strokeWidth=0;" vertex="1" parent="1">
          <mxGeometry x="380" y="280" width="20" height="20" as="geometry" />
        </mxCell>
        <mxCell id="4AQS_WKDl_blNjUJ66pf-23" value="activator" style="rounded=1;whiteSpace=wrap;html=1;" vertex="1" parent="1">
          <mxGeometry x="260" y="152.5" width="60" height="57.5" as="geometry" />
        </mxCell>
        <mxCell id="4AQS_WKDl_blNjUJ66pf-25" value="" style="shape=image;html=1;verticalAlign=top;verticalLabelPosition=bottom;labelBackgroundColor=#ffffff;imageAspect=0;aspect=fixed;image=https://cdn4.iconfinder.com/data/icons/evil-icons-user-interface/64/download-128.png" vertex="1" parent="1">
          <mxGeometry x="300" y="190" width="20" height="20" as="geometry" />
        </mxCell>
        <mxCell id="4AQS_WKDl_blNjUJ66pf-28" value="" style="strokeWidth=2;html=1;shape=mxgraph.flowchart.database;whiteSpace=wrap;" vertex="1" parent="1">
          <mxGeometry x="360" y="30" width="60" height="60" as="geometry" />
        </mxCell>
        <mxCell id="4AQS_WKDl_blNjUJ66pf-30" value="" style="shape=curlyBracket;whiteSpace=wrap;html=1;rounded=1;labelPosition=left;verticalLabelPosition=middle;align=right;verticalAlign=middle;size=0.5;" vertex="1" parent="1">
          <mxGeometry x="350" y="180" width="20" height="190" as="geometry" />
        </mxCell>
        <mxCell id="4AQS_WKDl_blNjUJ66pf-37" style="edgeStyle=orthogonalEdgeStyle;rounded=0;orthogonalLoop=1;jettySize=auto;html=1;entryX=0.1;entryY=0.5;entryDx=0;entryDy=0;entryPerimeter=0;" edge="1" parent="1">
          <mxGeometry relative="1" as="geometry">
            <mxPoint x="288" y="210" as="sourcePoint" />
            <mxPoint x="350" y="275" as="targetPoint" />
            <Array as="points">
              <mxPoint x="288" y="275" />
            </Array>
          </mxGeometry>
        </mxCell>
        <mxCell id="4AQS_WKDl_blNjUJ66pf-38" value="start process" style="edgeLabel;html=1;align=center;verticalAlign=middle;resizable=0;points=[];" vertex="1" connectable="0" parent="4AQS_WKDl_blNjUJ66pf-37">
          <mxGeometry x="-0.0901" y="1" relative="1" as="geometry">
            <mxPoint x="-1" y="-28" as="offset" />
          </mxGeometry>
        </mxCell>
        <mxCell id="4AQS_WKDl_blNjUJ66pf-40" value="" style="strokeWidth=2;html=1;shape=mxgraph.flowchart.database;whiteSpace=wrap;" vertex="1" parent="1">
          <mxGeometry x="260" y="30" width="60" height="60" as="geometry" />
        </mxCell>
        <mxCell id="4AQS_WKDl_blNjUJ66pf-41" style="edgeStyle=orthogonalEdgeStyle;rounded=0;orthogonalLoop=1;jettySize=auto;html=1;entryX=0.5;entryY=1;entryDx=0;entryDy=0;entryPerimeter=0;startArrow=classicThin;startFill=0;endArrow=none;endFill=0;" edge="1" parent="1" source="4AQS_WKDl_blNjUJ66pf-23" target="4AQS_WKDl_blNjUJ66pf-40">
          <mxGeometry relative="1" as="geometry" />
        </mxCell>
        <mxCell id="4AQS_WKDl_blNjUJ66pf-42" value="get configuration" style="edgeLabel;html=1;align=center;verticalAlign=middle;resizable=0;points=[];" vertex="1" connectable="0" parent="4AQS_WKDl_blNjUJ66pf-41">
          <mxGeometry x="0.0912" relative="1" as="geometry">
            <mxPoint as="offset" />
          </mxGeometry>
        </mxCell>
        <mxCell id="4AQS_WKDl_blNjUJ66pf-47" value="web server" style="rounded=1;whiteSpace=wrap;html=1;" vertex="1" parent="1">
          <mxGeometry x="140" y="150" width="100" height="230" as="geometry" />
        </mxCell>
        <mxCell id="4AQS_WKDl_blNjUJ66pf-49" style="edgeStyle=orthogonalEdgeStyle;rounded=0;orthogonalLoop=1;jettySize=auto;html=1;entryX=0;entryY=0.5;entryDx=0;entryDy=0;entryPerimeter=0;fillColor=#e1d5e7;strokeColor=#9673a6;" edge="1" parent="1" source="4AQS_WKDl_blNjUJ66pf-47" target="4AQS_WKDl_blNjUJ66pf-40">
          <mxGeometry relative="1" as="geometry">
            <Array as="points">
              <mxPoint x="210" y="60" />
            </Array>
          </mxGeometry>
        </mxCell>
        <mxCell id="4AQS_WKDl_blNjUJ66pf-50" value="CRUD on configuration" style="text;html=1;align=center;verticalAlign=middle;resizable=0;points=[];autosize=1;strokeColor=none;fillColor=none;" vertex="1" parent="1">
          <mxGeometry x="-80" y="230" width="150" height="30" as="geometry" />
        </mxCell>
        <mxCell id="4AQS_WKDl_blNjUJ66pf-51" style="edgeStyle=orthogonalEdgeStyle;rounded=0;orthogonalLoop=1;jettySize=auto;html=1;entryX=0.01;entryY=0.3;entryDx=0;entryDy=0;entryPerimeter=0;startArrow=classic;startFill=1;strokeColor=#A680B8;" edge="1" parent="1" source="4AQS_WKDl_blNjUJ66pf-50" target="4AQS_WKDl_blNjUJ66pf-47">
          <mxGeometry relative="1" as="geometry">
            <Array as="points">
              <mxPoint x="100" y="245" />
              <mxPoint x="100" y="219" />
            </Array>
          </mxGeometry>
        </mxCell>
        <mxCell id="4AQS_WKDl_blNjUJ66pf-52" value="GET on test Result" style="text;html=1;align=center;verticalAlign=middle;whiteSpace=wrap;rounded=0;" vertex="1" parent="1">
          <mxGeometry x="-70" y="305" width="130" height="30" as="geometry" />
        </mxCell>
        <mxCell id="4AQS_WKDl_blNjUJ66pf-53" style="edgeStyle=orthogonalEdgeStyle;rounded=0;orthogonalLoop=1;jettySize=auto;html=1;entryX=0.02;entryY=0.62;entryDx=0;entryDy=0;entryPerimeter=0;startArrow=classic;startFill=1;strokeColor=#0000FF;" edge="1" parent="1" source="4AQS_WKDl_blNjUJ66pf-52" target="4AQS_WKDl_blNjUJ66pf-47">
          <mxGeometry relative="1" as="geometry" />
        </mxCell>
        <mxCell id="4AQS_WKDl_blNjUJ66pf-56" style="edgeStyle=orthogonalEdgeStyle;rounded=0;orthogonalLoop=1;jettySize=auto;html=1;entryX=0.5;entryY=0;entryDx=0;entryDy=0;entryPerimeter=0;strokeColor=#0000FF;" edge="1" parent="1" source="4AQS_WKDl_blNjUJ66pf-47" target="4AQS_WKDl_blNjUJ66pf-28">
          <mxGeometry relative="1" as="geometry">
            <Array as="points">
              <mxPoint x="180" y="10" />
              <mxPoint x="390" y="10" />
            </Array>
          </mxGeometry>
        </mxCell>
      </root>
    </mxGraphModel>
  </diagram>
</mxfile>
